<?xml version="1.0" standalone="no"?>
<!DOCTYPE svg PUBLIC "-//W3C//DTD SVG 20010904//EN"
 "http://www.w3.org/TR/2001/REC-SVG-20010904/DTD/svg10.dtd">
<svg version="1.0" xmlns="http://www.w3.org/2000/svg"
 width="413.000000pt" height="531.000000pt" viewBox="0 0 413.000000 531.000000"
 preserveAspectRatio="xMidYMid meet">

<g transform="translate(0.000000,531.000000) scale(0.100000,-0.100000)"
fill="#000000" stroke="none">
<path d="M940 1441 c-46 -10 -78 -27 -116 -63 l-31 -29 -35 20 c-58 35 -181
61 -285 61 -206 0 -382 -66 -444 -167 -45 -72 -26 -201 42 -284 30 -37 46
-181 29 -255 -17 -68 -8 -164 19 -209 22 -38 28 -120 16 -221 -6 -45 -3 -75 9
-119 23 -78 37 -97 99 -131 46 -25 64 -29 157 -32 128 -5 208 12 327 68 l84
39 37 -19 c65 -34 145 -45 227 -31 69 11 74 11 111 -11 32 -19 53 -23 119 -23
54 1 90 6 110 17 31 16 85 101 85 132 0 9 3 16 7 16 3 0 39 -32 79 -70 89 -86
147 -115 217 -107 59 7 122 43 166 93 l33 37 51 -51 c99 -97 193 -108 298 -34
48 34 118 168 127 242 6 46 11 56 28 58 18 3 25 -9 53 -86 66 -184 116 -227
256 -220 161 8 225 70 225 215 l0 73 38 0 c20 0 46 3 58 6 19 5 22 -1 33 -73
29 -183 92 -243 257 -243 83 0 117 10 158 48 43 40 66 98 66 167 0 33 -16 147
-35 253 -40 223 -51 330 -60 567 -4 94 -13 193 -20 220 -16 57 -60 106 -118
130 -53 22 -147 30 -190 16 -55 -18 -109 -85 -142 -174 -15 -42 -31 -77 -36
-77 -4 0 -17 29 -29 64 -43 131 -99 176 -218 176 -76 0 -121 -12 -167 -44 -26
-18 -42 -21 -111 -18 -98 5 -145 -12 -194 -68 l-36 -40 -69 35 c-96 49 -195
68 -325 63 -147 -6 -194 -28 -307 -148 -47 -49 -89 -90 -93 -90 -4 0 -7 30 -7
68 0 37 -6 86 -12 109 -27 97 -164 154 -298 123 -31 -7 -50 -6 -75 4 -43 18
-124 26 -168 17z m2435 -171 c21 -20 23 -33 29 -178 10 -219 22 -333 61 -588
49 -308 48 -314 -32 -314 -62 0 -91 17 -103 59 -11 39 -51 328 -71 506 l-12
110 -54 -160 c-56 -171 -72 -195 -127 -195 -54 0 -70 21 -131 179 -33 83 -61
149 -63 146 -2 -2 1 -113 7 -247 7 -134 13 -264 14 -289 2 -55 -13 -76 -59
-85 -81 -15 -96 4 -160 199 l-38 117 -128 0 -128 0 -27 -90 c-15 -49 -30 -90
-33 -89 -13 1 -115 132 -111 143 2 6 5 45 5 86 1 68 3 75 25 86 19 10 37 53
106 264 46 138 91 260 101 271 21 24 95 26 118 4 8 -8 57 -142 108 -298 73
-224 93 -275 96 -247 5 44 -14 138 -37 193 -14 32 -20 83 -25 210 l-6 167 24
25 c19 19 35 25 71 25 58 0 56 3 169 -274 49 -119 91 -216 95 -216 3 0 46 109
96 241 58 156 97 246 110 256 26 19 81 10 110 -17z m-2316 4 c46 -33 60 -112
28 -154 -68 -90 -197 -50 -197 60 0 65 43 109 105 110 22 0 51 -7 64 -16z
m-448 -14 c87 -26 142 -69 174 -134 53 -109 40 -229 -35 -310 l-39 -42 36 -13
c19 -7 53 -29 74 -48 139 -126 58 -387 -154 -491 -127 -63 -317 -82 -366 -38
-25 23 -28 81 -7 112 12 17 13 40 4 139 -10 105 -14 123 -35 142 -27 26 -31
87 -7 121 14 20 14 36 -1 164 -22 206 -21 201 -58 218 -26 12 -33 21 -35 52
-2 20 2 47 8 59 14 24 99 66 162 78 82 16 212 12 279 -9z m708 3 c20 -17 21
-32 28 -257 l8 -239 166 160 c91 88 175 162 187 165 50 13 62 -65 22 -146 -14
-29 -67 -94 -128 -158 l-105 -109 59 -62 c32 -34 116 -121 187 -193 142 -146
150 -163 98 -215 -20 -20 -39 -29 -61 -29 -29 0 -52 20 -197 170 -91 94 -171
170 -178 170 -34 0 -44 -35 -51 -175 -4 -77 -11 -146 -17 -152 -20 -26 -58
-14 -108 34 l-49 48 -10 468 c-12 554 -15 534 86 536 26 1 50 -6 63 -16z m732
-63 c83 -15 178 -67 213 -117 26 -38 29 -50 28 -107 -5 -159 -101 -280 -259
-327 -24 -7 -43 -15 -43 -18 0 -4 72 -78 160 -166 147 -147 160 -163 160 -196
0 -45 -42 -89 -86 -89 -26 0 -55 25 -197 169 -92 92 -169 166 -172 163 -3 -3
-5 -18 -5 -32 0 -63 -51 -57 -119 13 -30 32 -32 39 -26 76 6 34 4 42 -12 47
-74 27 -71 104 6 144 36 18 39 22 43 72 3 36 13 67 32 95 16 24 31 62 34 88 4
37 0 52 -23 86 -49 75 -10 106 136 108 42 1 101 -3 130 -9z m-950 -209 c23
-19 24 -25 22 -128 -3 -118 -30 -538 -38 -590 -8 -44 -49 -66 -105 -57 -71 12
-70 6 -53 379 l15 330 41 43 c46 47 80 54 118 23z"/>
<path d="M2471 812 c-17 -57 -35 -110 -38 -118 -4 -11 8 -14 66 -14 85 0 83
-5 38 135 l-33 100 -33 -103z"/>
<path d="M425 1123 c-20 -4 -21 -6 -7 -156 8 -84 17 -155 21 -160 12 -12 93
21 124 51 47 45 61 81 58 154 -2 41 -55 96 -99 103 -68 11 -77 12 -97 8z"/>
<path d="M483 639 l-32 -9 6 -58 c3 -31 11 -97 17 -147 11 -88 12 -90 36 -87
50 6 131 54 160 94 41 56 48 103 24 148 -33 61 -120 85 -211 59z"/>
<path d="M1916 1013 c-3 -21 -8 -74 -11 -118 -4 -44 -9 -89 -12 -99 -5 -18 -1
-19 47 -13 95 11 175 76 187 152 11 69 -49 115 -151 115 l-54 0 -6 -37z"/>
</g>
</svg>
